<svg id="Слой_1" data-name="Слой 1" xmlns="http://www.w3.org/2000/svg" viewBox="0 0 1080 1080"><defs><style>.cls-1{fill:#0b1684;}</style></defs><path class="cls-1" d="M355.41,586.78a77,77,0,1,0,76.95,77A77,77,0,0,0,355.41,586.78Zm0,130.53A53.58,53.58,0,1,1,409,663.73,53.64,53.64,0,0,1,355.41,717.31Z"/><path class="cls-1" d="M355.41,631.59a32.15,32.15,0,1,0,32.15,32.14A32.14,32.14,0,0,0,355.41,631.59Z"/><path class="cls-1" d="M748.81,586.78a77,77,0,1,0,77,77A77,77,0,0,0,748.81,586.78Zm0,130.53a53.58,53.58,0,1,1,53.57-53.58A53.65,53.65,0,0,1,748.81,717.31Z"/><path class="cls-1" d="M748.81,631.59A32.15,32.15,0,1,0,781,663.73,32.15,32.15,0,0,0,748.81,631.59Z"/><path class="cls-1" d="M895.58,433.21l-64.52-27c-8.23-14.67-39.48-68.87-64-90.21a11.66,11.66,0,0,0-7.66-2.86H663.66v-64A11.69,11.69,0,0,0,652,237.45H181.28a11.69,11.69,0,0,0-11.69,11.69V534.59a11.69,11.69,0,0,0,11.69,11.69h20.3v85.3a11.7,11.7,0,0,0,11.69,11.69h51.54a11.69,11.69,0,0,0,11-7.77,84.45,84.45,0,0,1,159.19,0,11.69,11.69,0,0,0,11,7.77H658.2a11.67,11.67,0,0,0,11-7.77,84.45,84.45,0,0,1,159.19,0,11.69,11.69,0,0,0,11,7.77h51.64a11.69,11.69,0,0,0,11.69-11.69V444A11.69,11.69,0,0,0,895.58,433.21ZM663.83,336.47h91c24.53,23.89,57.41,83.88,57.75,84.51a11.67,11.67,0,0,0,5.74,5.18l61.1,25.6v72.45H663.83ZM193,295h29.54V489.68H193Zm44.56,0H269V489.68H237.53ZM284,295H315.4V489.68H284Zm46.45,0h31.42V489.68H330.43Zm46.45,0H408.3V489.68H376.88Zm46.45,0h31.42V489.68H423.33Zm46.44,0h31.42V489.68H469.77Zm46.45,0h31.42V489.68H516.22Zm46.45,0h31.42V489.68H562.67Zm46.45,0h31.16V489.68H609.12ZM193,260.83H640.28v17.45H193Zm0,262.07V506.38H640.28V522.9Zm686.41,97H847.32a107.81,107.81,0,0,0-197,0H453.92a107.81,107.81,0,0,0-197,0H225v-72.3H879.38Z"/><path class="cls-1" d="M739.63,356.62H678.07v73H791.72l-.62-1C778.37,407.22,756.18,374.51,739.63,356.62Z"/><rect class="cls-1" x="694.61" y="457.38" width="37.01" height="13.46"/></svg>