<svg id="Слой_1" data-name="Слой 1" xmlns="http://www.w3.org/2000/svg" viewBox="0 0 1080 1080"><defs><style>.cls-1{fill:#0b1684;}</style></defs><path class="cls-1" d="M283.74,275.81l93.55,28.74,53.78,133.92a11.59,11.59,0,0,0-2.69,4.47L402.1,523.53a11.62,11.62,0,0,0,.29,8L475.56,711A92.37,92.37,0,1,0,653,715.07l166.84-71.18a11.69,11.69,0,0,0-9.17-21.5l-166.49,71a93.09,93.09,0,0,0-12.07-16.77l156.61-64.81a8.35,8.35,0,0,0,4.52-10.91l-81-195.83a8.33,8.33,0,0,0-10.9-4.52l-16.51,6.83L627.53,269a8.35,8.35,0,0,0-10.91-4.52L467.7,326.1A8.35,8.35,0,0,0,463.18,337l57.28,138.41-19.17,7.93a8.36,8.36,0,0,0-4.53,10.91l63,152.1a92.27,92.27,0,0,0-18.86,2.77l-144-358.47a11.69,11.69,0,0,0-7.41-6.81L290.6,253.47a11.68,11.68,0,1,0-6.86,22.34ZM481.8,338.34,523,321.27,539,359.73l51-21.12-15.92-38.46,41.23-17.06,54,130.37-133.5,55.25Zm81.91,331.3c1.94,0,3.85.1,5.74.25a68.68,68.68,0,0,1,20,4.76l1.89.79a69,69,0,1,1-27.67-5.8Zm-48.32-174,58-24,22.48,54.3,68.54-28.37L642,443.2l58-24,74.66,180.4L618.41,664.25a91.87,91.87,0,0,0-40.19-16.84Zm-25.78,188L462.92,618.1l32.3-19.88,23.91,59.55A93.15,93.15,0,0,0,489.61,683.55ZM454,596.16,425.65,526.7,444,470.57l42.42,105.64Z"/><path class="cls-1" d="M563.71,778.37a39.74,39.74,0,0,0,39.74-39.74c0-.8,0-1.6-.07-2.39a39.77,39.77,0,0,0-39.67-37.35c-1,0-1.89.05-2.83.11a39.74,39.74,0,0,0,2.83,79.37Z"/></svg>