<svg id="Слой_1" data-name="Слой 1" xmlns="http://www.w3.org/2000/svg" viewBox="0 0 1080 1080"><defs><style>.cls-1{fill:#0b1684;}</style></defs><path class="cls-1" d="M749.22,485.43V444.74a12.1,12.1,0,0,0-.06-1.21c-5.09-48.89-31-94-72.88-127-42.74-33.67-99.65-52.21-160.24-52.21-61.5,0-113.63,16.95-155,50.37-38,30.75-65,74.75-77.89,127.25a12,12,0,0,0-.34,2.8v40.68c-40.73,3.94-72.38,31.36-72.38,64.51v35.55c0,33.62,32.53,61.36,74.09,64.68A93.14,93.14,0,0,0,320,711.77V772a11.69,11.69,0,0,0,23.37.07s0,0,0-.07V725a92.68,92.68,0,0,0,33.57,6.28h16a165.55,165.55,0,0,0,47,41.32,155.67,155.67,0,0,0,156.26.92C646.64,744.73,681,688.66,681,624.35v-93.6s0-.06,0-.09c0-.26,0-.53,0-.79s0-.26,0-.38-.07-.49-.12-.74,0-.28-.07-.42a6.06,6.06,0,0,0-.16-.61,5,5,0,0,0-.14-.52c-.05-.16-.11-.31-.17-.47a6.19,6.19,0,0,0-.23-.6c0-.13-.12-.25-.18-.37s-.2-.44-.32-.65-.14-.23-.2-.34l-.38-.61c-.09-.13-.19-.25-.29-.38l-.38-.51-.4-.44-.35-.37c-.16-.16-.34-.31-.51-.46l-.32-.29c-.18-.15-.37-.28-.55-.41l-.36-.26c-.17-.12-.36-.22-.54-.33l-.44-.26a5.24,5.24,0,0,0-.48-.23c-.19-.09-.38-.19-.58-.27l-.39-.14c-.24-.09-.47-.18-.71-.25l-.37-.1c-.26-.06-.51-.13-.78-.18l-.09,0c-11.75-2.16-27.84-8-45-15.43-46-19.79-100.1-50.57-100.84-51a11.7,11.7,0,0,0-12.91.87c-34.06,26.09-70.17,41.95-97.36,51.24-25.82,8.81-43.6,11.7-44,11.76a11.66,11.66,0,0,0-5.86,2.72,11.68,11.68,0,0,0-8.87,11.33v93.6a174.7,174.7,0,0,0,21.06,83.55h-.71a69.39,69.39,0,0,1-33.57-8.62V500c0-87.58,78.56-158.82,175.14-158.82S693.62,412.45,693.62,500V774.16a11.69,11.69,0,0,0,23.38,0V500c0-100.47-89-182.2-198.51-182.2S320,399.56,320,500V678.38a69.38,69.38,0,0,1-12.84-40.26,11.55,11.55,0,0,0-1.11-5V507.73a11.8,11.8,0,0,0,.21-2.16v-59.4c11.82-46.89,35.85-86.05,69.54-113.3C412.84,302.9,460,287.7,516,287.7c55.37,0,107.14,16.76,145.77,47.2,36.73,28.93,59.45,68.14,64,110.45v57.9s0,0,0,.06a11.83,11.83,0,0,0,.1,1.47v134a11.7,11.7,0,0,0,11.53,11.69H739c45.48,0,82.48-29.16,82.48-65V549.93C821.51,516.81,789.9,489.41,749.22,485.43ZM379.94,624.35V538.89a331.1,331.1,0,0,0,38.56-10.26,384.5,384.5,0,0,0,57.21-24,351,351,0,0,0,44.92-27.72c9.8,5.47,29.15,16.07,51.4,27.22,18.47,9.26,38.93,18.89,57.6,26.3a269.13,269.13,0,0,0,28,9.6v84.33c0,80.7-62.28,146.36-138.84,146.36-36.56,0-69.87-15-94.69-39.43h17.76a28.93,28.93,0,0,0,25.45,15.21h33.16a28.91,28.91,0,1,0,0-57.81H467.3a28.92,28.92,0,0,0-27.2,19.22H404.86A151,151,0,0,1,379.94,624.35Zm418.19-38.87c0,20.49-21.1,37.56-48.8,41V508.93c27.7,3.44,48.8,20.52,48.8,41ZM233.84,549.93c0-20.48,21.11-37.56,48.81-41V626.49c-27.7-3.45-48.81-20.52-48.81-41Z"/></svg>