<svg id="OBJECT" xmlns="http://www.w3.org/2000/svg" viewBox="0 0 248.14 248.14"><defs><style>.cls-1{fill:#fff;}.cls-2{fill:#3cf;}</style></defs><circle class="cls-1" cx="124.07" cy="124.07" r="124.07"/><path class="cls-2" d="M116.69,29.54,77.18,69.22c-3.85,3.88-4.42,10.25-.74,14.31a10.12,10.12,0,0,0,14.67.36l17.91-18a3.21,3.21,0,0,1,5.49,2.26l.14,64.71c0,5.48,4.12,10.37,9.59,10.65a10.12,10.12,0,0,0,10.63-10.12l-.14-65.28a3.22,3.22,0,0,1,5.49-2.29l17.58,17.5c3.87,3.87,10.24,4.42,14.3.75a10.11,10.11,0,0,0,.37-14.67L132.39,29.51A11.1,11.1,0,0,0,116.69,29.54Z" transform="translate(-0.63 -3.17)"/><path class="cls-2" d="M114.73,170.91l0,11.65a10.11,10.11,0,1,0,20.22,0l0-11.65a10.11,10.11,0,0,0-20.22,0Z" transform="translate(-0.63 -3.17)"/><path class="cls-2" d="M114.83,217v1.09a10.11,10.11,0,0,0,20.22,0V217a10.11,10.11,0,1,0-20.22,0Z" transform="translate(-0.63 -3.17)"/></svg>