<svg id="Слой_1" data-name="Слой 1" xmlns="http://www.w3.org/2000/svg" viewBox="0 0 1080 1080"><defs><style>.cls-1{fill:#1d1d1b;}.cls-2{fill:#f3f3f3;}</style></defs><path class="cls-1" d="M793.17,350.55H424v158.9H409.43l.91-126.19H293.51l-52.42,136.8-1.24,2.24V623.18h40.81a65.86,65.86,0,0,1,120.8,0H611.52a65.86,65.86,0,0,1,120.8,0h60.11V560.86h.74Z"/><rect class="cls-1" x="239.85" y="640.96" width="34.57" height="17.52"/><rect class="cls-1" x="405.27" y="640.96" width="204.57" height="17.52"/><rect class="cls-1" x="732.83" y="640.96" width="59.57" height="17.52"/><polygon class="cls-2" points="298.86 396.12 261.5 504.78 395.15 504.78 396.04 396.12 298.86 396.12"/><path class="cls-1" d="M339.45,598.2a51.24,51.24,0,1,0,51.23,51.24A51.22,51.22,0,0,0,339.45,598.2Zm0,78.17a26.94,26.94,0,1,1,26.94-26.93A26.93,26.93,0,0,1,339.45,676.37Z"/><path class="cls-2" d="M339.45,598.2a51.24,51.24,0,1,1-51.23,51.24,51.22,51.22,0,0,1,51.23-51.24m0,78.17a26.94,26.94,0,1,0-26.93-26.93,26.93,26.93,0,0,0,26.93,26.93m0-96.62a69.69,69.69,0,1,0,69.68,69.69,69.77,69.77,0,0,0-69.68-69.69Zm0,78.18a8.5,8.5,0,1,1,8.5-8.49,8.5,8.5,0,0,1-8.5,8.49Z"/><path class="cls-1" d="M671.48,598.2a51.24,51.24,0,1,0,51.23,51.24A51.23,51.23,0,0,0,671.48,598.2Zm0,78.17a26.94,26.94,0,1,1,26.94-26.93A26.94,26.94,0,0,1,671.48,676.37Z"/><path class="cls-2" d="M671.48,598.2a51.24,51.24,0,1,1-51.24,51.24,51.22,51.22,0,0,1,51.24-51.24m0,78.17a26.94,26.94,0,1,0-26.94-26.93,26.94,26.94,0,0,0,26.94,26.93m0-96.62a69.69,69.69,0,1,0,69.68,69.69,69.77,69.77,0,0,0-69.68-69.69Zm0,78.18a8.5,8.5,0,1,1,8.49-8.49,8.5,8.5,0,0,1-8.49,8.49Z"/></svg>