<svg id="Слой_1" data-name="Слой 1" xmlns="http://www.w3.org/2000/svg" viewBox="0 0 1080 1080"><defs><style>.cls-1{fill:#1d1d1b;}.cls-2{fill:#f3f3f3;}</style></defs><path class="cls-1" d="M776.31,553.46l-1.72-.09,1.48-.22-5.57-24.79L751.76,407.52l-.43-3.92H366.82l-31.15,82.23-47.79,12.3L262.51,611.9h30.38c5.5-27,29.95-47.45,59.32-47.45s53.81,20.4,59.31,47.45H623.78c5.5-27,30-47.45,59.32-47.45,29.13,0,53.42,20.07,59.18,46.79.1.23.25.43.36.66H776.7Z"/><rect class="cls-1" x="261.95" y="630.61" width="29.56" height="18.45"/><rect class="cls-1" x="414.17" y="630.61" width="208.62" height="18.45"/><rect class="cls-1" x="745.7" y="630.61" width="30.44" height="18.45"/><polygon class="cls-2" points="374.55 412.93 351.96 479.23 450.34 478.52 450.34 412.93 374.55 412.93"/><path class="cls-1" d="M349.12,573a47.45,47.45,0,1,0,47.44,47.45A47.44,47.44,0,0,0,349.12,573Zm0,72.39a24.95,24.95,0,1,1,24.95-24.94A24.94,24.94,0,0,1,349.12,645.34Z"/><path class="cls-2" d="M349.12,573a47.45,47.45,0,1,1-47.44,47.45A47.44,47.44,0,0,1,349.12,573m0,72.39a24.95,24.95,0,1,0-24.94-24.94,24.94,24.94,0,0,0,24.94,24.94m0-89.47a64.53,64.53,0,1,0,64.52,64.53,64.6,64.6,0,0,0-64.52-64.53Zm0,72.39A7.87,7.87,0,1,1,357,620.4a7.87,7.87,0,0,1-7.87,7.86Z"/><path class="cls-1" d="M678.6,573A47.45,47.45,0,1,0,726,620.4,47.44,47.44,0,0,0,678.6,573Zm0,72.39a24.95,24.95,0,1,1,24.95-24.94A24.94,24.94,0,0,1,678.6,645.34Z"/><path class="cls-2" d="M678.6,573a47.45,47.45,0,1,1-47.44,47.45A47.44,47.44,0,0,1,678.6,573m0,72.39a24.95,24.95,0,1,0-24.94-24.94,24.94,24.94,0,0,0,24.94,24.94m0-89.47a64.53,64.53,0,1,0,64.52,64.53,64.6,64.6,0,0,0-64.52-64.53Zm0,72.39a7.87,7.87,0,1,1,7.87-7.86,7.87,7.87,0,0,1-7.87,7.86Z"/></svg>