<svg id="Слой_1" data-name="Слой 1" xmlns="http://www.w3.org/2000/svg" viewBox="0 0 1080 1080"><defs><style>.cls-1{fill:#1d1d1b;}.cls-2{fill:#f3f3f3;}</style></defs><path class="cls-1" d="M218.14,558.72l1.06-.68c.27-22.63,16.12-28.65,16.12-28.65l84.19-38,10.71-18.27L370,402.09c2.19-5,8.43-9.07,13.87-9.07H815.34c3.91,0,7.26.13,8.87.31l1-.31V624.38h-33c-.09-.23-.24-.44-.34-.66a58.67,58.67,0,0,0-115,.66H358.09a58.68,58.68,0,0,0-57.54-47.23c-28.48,0-50.24,20.31-55.57,47.23H217.66Z"/><rect class="cls-1" x="792.79" y="637.92" width="32.89" height="16.42"/><rect class="cls-1" x="359.98" y="637.92" width="317.64" height="16.42"/><rect class="cls-1" x="215.92" y="637.92" width="30.08" height="16.42"/><polygon class="cls-2" points="378.38 410.26 340.2 486.83 442.29 486.83 443.54 410.26 378.38 410.26"/><path class="cls-1" d="M253.76,633.51a48,48,0,1,0,48-48A48,48,0,0,0,253.76,633.51Zm27.8,0a20.18,20.18,0,1,1,20.17,20.17A20.18,20.18,0,0,1,281.56,633.51Z"/><path class="cls-2" d="M301.73,585.55a48,48,0,1,1-48,48,48,48,0,0,1,48-48m0,68.13a20.18,20.18,0,1,0-20.17-20.17,20.18,20.18,0,0,0,20.17,20.17m0-83.6a63.44,63.44,0,1,0,63.43,63.43,63.5,63.5,0,0,0-63.43-63.43Zm0,68.14a4.72,4.72,0,1,1,4.72-4.71,4.71,4.71,0,0,1-4.72,4.71Z"/><path class="cls-1" d="M686.42,633.51a48,48,0,1,0,48-48A48,48,0,0,0,686.42,633.51Zm27.8,0a20.18,20.18,0,1,1,20.17,20.17A20.18,20.18,0,0,1,714.22,633.51Z"/><path class="cls-2" d="M734.39,585.55a48,48,0,1,1-48,48,48,48,0,0,1,48-48m0,68.13a20.18,20.18,0,1,0-20.17-20.17,20.18,20.18,0,0,0,20.17,20.17m0-83.6a63.44,63.44,0,1,0,63.42,63.43,63.5,63.5,0,0,0-63.42-63.43Zm0,68.14a4.72,4.72,0,1,1,4.72-4.71,4.71,4.71,0,0,1-4.72,4.71Z"/></svg>