<svg id="Слой_1" data-name="Слой 1" xmlns="http://www.w3.org/2000/svg" viewBox="0 0 1080 1080"><defs><style>.cls-1{fill:#1d1d1b;}.cls-2{fill:#f3f3f3;}</style></defs><rect class="cls-1" x="272.23" y="346.97" width="694.77" height="240.55"/><rect class="cls-1" x="75.63" y="657.27" width="77.2" height="15.85"/><polyline class="cls-1" points="267.79 657.27 659.8 657.27 659.8 673.12 267.79 673.12"/><rect class="cls-1" x="879.56" y="657.27" width="85.65" height="15.85"/><path class="cls-1" d="M288.25,580l-42.17-.24V580h-19l2.92-.34,16.09.1.86-154.56H110.77L96.1,520.48l-16.31,8.16-.59,49-1.4-.08.87.08-.92,65.49h76.38a56.68,56.68,0,0,1,111.17,0H659.7a56.7,56.7,0,0,1,51.67-45.48c1.29-.08,110-.13,111.28-.13a56.69,56.69,0,0,1,55.45,45c.1.22.24.41.34.63h86.77V580Z"/><polygon class="cls-2" points="124.93 438.65 114.04 494.75 190.43 494.75 191.1 438.65 124.93 438.65"/><path class="cls-1" d="M209.71,607.88a46.34,46.34,0,1,0,46.34,46.34A46.34,46.34,0,0,0,209.71,607.88Zm0,70.71a24.37,24.37,0,1,1,24.36-24.37A24.37,24.37,0,0,1,209.71,678.59Z"/><path class="cls-2" d="M209.71,607.88a46.34,46.34,0,1,1-46.34,46.34,46.34,46.34,0,0,1,46.34-46.34m0,70.71a24.37,24.37,0,1,0-24.36-24.37,24.36,24.36,0,0,0,24.36,24.37m0-82.82a58.45,58.45,0,1,0,58.45,58.45,58.51,58.51,0,0,0-58.45-58.45Zm0,70.71A12.26,12.26,0,1,1,222,654.22a12.28,12.28,0,0,1-12.25,12.26Z"/><path class="cls-1" d="M694.39,607.88a46.34,46.34,0,1,0,46.34,46.34A46.34,46.34,0,0,0,694.39,607.88Zm0,70.71a24.37,24.37,0,1,1,24.36-24.37A24.37,24.37,0,0,1,694.39,678.59Z"/><path class="cls-2" d="M694.39,607.88a46.34,46.34,0,1,1-46.34,46.34,46.34,46.34,0,0,1,46.34-46.34m0,70.71A24.37,24.37,0,1,0,670,654.22a24.37,24.37,0,0,0,24.37,24.37m0-82.82a58.45,58.45,0,1,0,58.44,58.45,58.52,58.52,0,0,0-58.44-58.45Zm0,70.71a12.26,12.26,0,1,1,12.25-12.26,12.27,12.27,0,0,1-12.25,12.26Z"/><path class="cls-1" d="M822.41,607.88a46.34,46.34,0,1,0,46.34,46.34A46.34,46.34,0,0,0,822.41,607.88Zm0,70.71a24.37,24.37,0,1,1,24.36-24.37A24.37,24.37,0,0,1,822.41,678.59Z"/><path class="cls-2" d="M822.41,607.88a46.34,46.34,0,1,1-46.34,46.34,46.34,46.34,0,0,1,46.34-46.34m0,70.71A24.37,24.37,0,1,0,798,654.22a24.36,24.36,0,0,0,24.37,24.37m0-82.82a58.45,58.45,0,1,0,58.45,58.45,58.52,58.52,0,0,0-58.45-58.45Zm0,70.71a12.26,12.26,0,1,1,12.25-12.26,12.27,12.27,0,0,1-12.25,12.26Z"/><rect class="cls-2" x="305.69" y="530.33" width="631.31" height="13.53"/></svg>