<svg id="Слой_1" data-name="Слой 1" xmlns="http://www.w3.org/2000/svg" viewBox="0 0 712 200"><defs><style>.cls-1{fill:#01173f;}</style></defs><path class="cls-1" d="M432.11,18.8V81.42h-6.53V24.52H386v56.9h-6.53V18.8Z"/><path class="cls-1" d="M489.27,52.25V81.42h-6.08V74.08c-2.87,4.83-8.41,7.78-16.2,7.78-10.64,0-17.17-5.54-17.17-13.68,0-7.25,4.65-13.33,18.16-13.33h14.94V52c0-8.06-4.56-12.44-13.33-12.44a24,24,0,0,0-15.66,5.55l-2.86-4.74c4.74-4,11.72-6.36,19.15-6.36C482.38,34,489.27,40.09,489.27,52.25Zm-6.35,15V59.59H468.16c-9.13,0-12.08,3.58-12.08,8.41,0,5.45,4.38,8.85,11.9,8.85C475.14,76.85,480.41,73.45,482.92,67.28Z"/><path class="cls-1" d="M550.73,34.36V81.42h-6.36V40H514.85V81.42H508.5V34.36Z"/><path class="cls-1" d="M606.37,52.25V81.42h-6.09V74.08c-2.86,4.83-8.4,7.78-16.19,7.78-10.64,0-17.17-5.54-17.17-13.68,0-7.25,4.65-13.33,18.16-13.33H600V52c0-8.06-4.57-12.44-13.33-12.44A24,24,0,0,0,571,45.1l-2.86-4.74c4.74-4,11.72-6.36,19.14-6.36C599.48,34,606.37,40.09,606.37,52.25Zm-6.35,15V59.59H585.26c-9.13,0-12.08,3.58-12.08,8.41,0,5.45,4.38,8.85,11.9,8.85C592.23,76.85,597.51,73.45,600,67.28Z"/><path class="cls-1" d="M411.17,130.48H384.25V171.9H377.9V124.85h33.27Z"/><path class="cls-1" d="M474,148.38c0,14.31-10,24-23.44,24-7.51,0-13.95-3.22-17.89-9.3v26.21h-6.35V124.85h6.08v9.3c3.85-6.26,10.38-9.66,18.16-9.66C464,124.49,474,134.15,474,148.38Zm-6.35,0c0-10.92-7.6-18.34-17.53-18.34s-17.54,7.42-17.54,18.34,7.52,18.33,17.54,18.33S467.62,159.38,467.62,148.38Z"/><path class="cls-1" d="M532.21,124.85l-23.53,52.69c-3.94,9.21-8.95,12.16-15.65,12.16a16.09,16.09,0,0,1-11.45-4.29l2.95-4.74a11.76,11.76,0,0,0,8.58,3.58c4.21,0,7.07-2,9.76-7.88l2.05-4.56-21-47h6.62l17.71,40,17.71-40Z"/><path class="cls-1" d="M580.16,158.39c0,8.5-9.4,14.05-21.11,14.05-6.71,0-13.6-2-18.61-5.82l2.15-4.74a27.62,27.62,0,0,0,16.19,5.1c8.5,0,14.85-3.4,14.85-9.12,0-5-4.83-8-12.71-8h-8v-4.66h7.7c6.88,0,11.71-2.77,11.71-7.42,0-5.19-5.54-8-13.06-8a32.92,32.92,0,0,0-15,3.84l-1.79-4.92a37.33,37.33,0,0,1,17.44-4.38c10.74,0,19,4.92,19,12.61,0,4.92-3.67,8.68-9.13,10.47C576.31,148.91,580.16,152.85,580.16,158.39Z"/><path class="cls-1" d="M600.46,124.85h6.36v37.39l31.39-37.39h5.64V171.9H637.5V134.51L606.19,171.9h-5.73Z"/><path class="cls-1" d="M701,130.48h-17.8V171.9h-6.35V130.48h-17.8v-5.63h42Z"/><path class="cls-1" d="M273.1,178.74a3.09,3.09,0,0,1-3.09-3.09V15.25a3.09,3.09,0,1,1,6.17,0v160.4A3.08,3.08,0,0,1,273.1,178.74Z"/><path class="cls-1" d="M103.11,183c-.43,0-.87,0-1.31,0a24.56,24.56,0,1,1,1.31,0Zm0-44.73a20.15,20.15,0,1,0,1.05,0Q103.63,138.25,103.1,138.25Z"/><path class="cls-1" d="M103.1,170.38h-.64a12.15,12.15,0,1,1,.64,0Zm0-19a7.19,7.19,0,0,0-5.34,12,7.19,7.19,0,0,0,12.53-4.43h0a7.2,7.2,0,0,0-6.81-7.57Z"/><path class="cls-1" d="M71.09,25.89a23.14,23.14,0,0,0-30-14.33l-21.56,8a4.87,4.87,0,0,0-2.74,6.51l5.75,13.21a4.89,4.89,0,0,0,6.17,2.63l19.46-7.08a1.16,1.16,0,0,1,.91,0,1.19,1.19,0,0,1,.61.68L85.88,141.61a9.76,9.76,0,0,1,3.79-3.22L54.08,34.07a5.82,5.82,0,0,0-7.49-3.58L27.12,37.58a.28.28,0,0,1-.33-.14L21,24.24A.26.26,0,0,1,21,24a.24.24,0,0,1,.13-.13l21.54-8a18.51,18.51,0,0,1,24,11.46l35.78,106.49a38.67,38.67,0,0,1,5.08.6Z"/><path class="cls-1" d="M204.53,133.06l-1.61-4.8a7.45,7.45,0,0,0-9-4.9l-72.58,20-.13,0a3.29,3.29,0,0,1,2.43,4.12l71.53-19.71a2.81,2.81,0,0,1,3.39,1.91l1.61,4.8A3.22,3.22,0,0,1,200,137a2.84,2.84,0,0,1-1.68,1.43l-71.78,20.46a3.61,3.61,0,0,1-.16,4.85l73.23-20.87a7.43,7.43,0,0,0,4.5-3.74A7.87,7.87,0,0,0,204.53,133.06Z"/><path class="cls-1" d="M186.32,127.26l-24-75.09L84.81,74.79l-1.3-4.44,78.37-22.87.15,0c2.54-.38,3.91.92,4.34,2.26l24.36,76.14Z"/></svg>