<svg id="Слой_1" data-name="Слой 1" xmlns="http://www.w3.org/2000/svg" viewBox="0 0 220 106"><defs><style>.cls-1{fill:#fff;}.cls-2{fill:#2ed2f7;}</style></defs><path class="cls-1" d="M133.19,27.76V47.6h-2.07v-18H118.57v18H116.5V27.76Z"/><path class="cls-1" d="M151.3,38.36V47.6h-1.92V45.27c-.91,1.53-2.67,2.47-5.13,2.47-3.38,0-5.45-1.76-5.45-4.34,0-2.29,1.48-4.22,5.76-4.22h4.73v-.91c0-2.55-1.45-3.94-4.22-3.94a7.58,7.58,0,0,0-5,1.76l-.91-1.5a9.44,9.44,0,0,1,6.07-2C149.12,32.57,151.3,34.5,151.3,38.36Zm-2,4.76V40.68h-4.68c-2.89,0-3.82,1.13-3.82,2.66,0,1.73,1.39,2.81,3.77,2.81A4.77,4.77,0,0,0,149.29,43.12Z"/><path class="cls-1" d="M170.77,32.69V47.6h-2V34.47h-9.35V47.6h-2V32.69Z"/><path class="cls-1" d="M188.4,38.36V47.6h-1.92V45.27c-.91,1.53-2.67,2.47-5.13,2.47-3.38,0-5.45-1.76-5.45-4.34,0-2.29,1.48-4.22,5.76-4.22h4.73v-.91c0-2.55-1.44-3.94-4.22-3.94a7.58,7.58,0,0,0-5,1.76l-.91-1.5a9.44,9.44,0,0,1,6.07-2C186.22,32.57,188.4,34.5,188.4,38.36Zm-2,4.76V40.68h-4.68c-2.89,0-3.82,1.13-3.82,2.66,0,1.73,1.39,2.81,3.77,2.81A4.77,4.77,0,0,0,186.39,43.12Z"/><path class="cls-1" d="M126.56,63.14H118V76.26h-2V61.36h10.54Z"/><path class="cls-1" d="M146.46,68.81a7.23,7.23,0,0,1-7.43,7.6,6.51,6.51,0,0,1-5.67-3v8.3h-2V61.36h1.93V64.3A6.49,6.49,0,0,1,139,61.24,7.22,7.22,0,0,1,146.46,68.81Zm-2,0a5.56,5.56,0,1,0-5.55,5.81A5.49,5.49,0,0,0,144.44,68.81Z"/><path class="cls-1" d="M164.91,61.36l-7.46,16.69c-1.24,2.92-2.83,3.85-5,3.85a5.1,5.1,0,0,1-3.63-1.36l.94-1.5a3.71,3.71,0,0,0,2.72,1.14c1.33,0,2.24-.63,3.09-2.5l.65-1.44L149.6,61.36h2.1L157.31,74l5.61-12.67Z"/><path class="cls-1" d="M180.1,72c0,2.7-3,4.45-6.69,4.45a9.85,9.85,0,0,1-5.9-1.84l.68-1.5a8.76,8.76,0,0,0,5.13,1.62c2.7,0,4.71-1.08,4.71-2.9,0-1.58-1.53-2.52-4-2.52h-2.55V67.82h2.44c2.18,0,3.71-.88,3.71-2.35,0-1.65-1.75-2.56-4.13-2.56a10.5,10.5,0,0,0-4.77,1.22l-.56-1.56a11.84,11.84,0,0,1,5.52-1.38c3.41,0,6,1.55,6,4,0,1.56-1.16,2.75-2.89,3.32C178.88,69,180.1,70.23,180.1,72Z"/><path class="cls-1" d="M186.53,61.36h2V73.2l10-11.84h1.79v14.9h-2V64.42l-9.92,11.84h-1.82Z"/><path class="cls-1" d="M218.39,63.14h-5.64V76.26h-2V63.14H205.1V61.36h13.29Z"/><path class="cls-2" d="M82.81,78.43a1,1,0,0,1-1-1V26.63a1,1,0,1,1,2,0V77.45A1,1,0,0,1,82.81,78.43Z"/><path class="cls-2" d="M29,79.77h-.42a7.83,7.83,0,0,1-7.4-8.22A7.82,7.82,0,1,1,29,79.77ZM29,65.6a6.35,6.35,0,1,0,6.35,6.69,6.38,6.38,0,0,0-6-6.68Z"/><path class="cls-2" d="M29,75.78h-.2a3.74,3.74,0,0,1-2.59-1.24,3.67,3.67,0,0,1-.95-2.7,3.75,3.75,0,0,1,7.48.39A3.75,3.75,0,0,1,29,75.78Zm0-6a2.28,2.28,0,0,0-.12,4.55,2.2,2.2,0,0,0,1.64-.58,2.24,2.24,0,0,0,.75-1.57h0a2.28,2.28,0,0,0-2.15-2.4Z"/><path class="cls-2" d="M18.81,30a7.33,7.33,0,0,0-9.5-4.54L2.48,28a1.54,1.54,0,0,0-.87,2.06l1.82,4.19a1.55,1.55,0,0,0,2,.83l6.16-2.24a.36.36,0,0,1,.48.23L23.5,66.67a2.92,2.92,0,0,1,1.2-1L13.42,32.6a1.84,1.84,0,0,0-2.37-1.14L4.88,33.71a.08.08,0,0,1-.1-.05L3,29.48a.08.08,0,0,1,0-.07s0,0,0,0l6.83-2.53a5.85,5.85,0,0,1,7.6,3.63L28.76,64.21a11.1,11.1,0,0,1,1.61.19Z"/><path class="cls-2" d="M61.09,64l-.51-1.52a2.36,2.36,0,0,0-2.86-1.55l-23,6.33,0,0a1,1,0,0,1,.77,1.3L58.11,62.3a.9.9,0,0,1,1.08.6l.51,1.52a1.08,1.08,0,0,1-.06.79.9.9,0,0,1-.54.46L36.36,72.15a1.15,1.15,0,0,1,0,1.54l23.2-6.62a2.33,2.33,0,0,0,1.43-1.18A2.5,2.5,0,0,0,61.09,64Z"/><path class="cls-2" d="M55.32,62.12,47.71,38.33,23.16,45.5l-.41-1.41,24.82-7.25h0a1.14,1.14,0,0,1,1.38.72l7.72,24.12Z"/></svg>