<svg id="Слой_1" data-name="Слой 1" xmlns="http://www.w3.org/2000/svg" viewBox="0 0 91 82"><defs><style>.cls-1{fill:#2ed2f7;}</style></defs><path class="cls-1" d="M18.61,20.64s3-5.27,5.47-5.57,5.62-.3,6.47,1.3,4.66,10.94,4.66,10.94a3.68,3.68,0,0,1-.35,3.16,31.34,31.34,0,0,1-3.26,3.81,2.79,2.79,0,0,0,0,3.31,60.83,60.83,0,0,0,7.23,8.86c4,4,11.73,6.88,11.73,6.88a2.37,2.37,0,0,0,1.81-.55c.7-.7,4.51-5.46,4.51-5.46a2.67,2.67,0,0,1,3.26-.65C62.17,47.59,71,52,71,52a1.91,1.91,0,0,1,1,1.93c0,1.56-.63,5.36-1.92,6.64s-5,5.26-10.69,5.26S40.28,61.21,33.11,54,19.57,39.59,18.06,33,16.76,23.36,18.61,20.64Z"/></svg>